<svg width="272" height="61" viewBox="0 0 272 61" fill="none" xmlns="http://www.w3.org/2000/svg">
<path d="M18.808 13.76C22.0933 13.76 25.0373 14.4853 27.64 15.936C30.2427 17.3867 32.2693 19.4133 33.72 22.016C35.2133 24.6187 35.96 27.6267 35.96 31.04C35.96 34.4533 35.2133 37.4827 33.72 40.128C32.2693 42.7307 30.2427 44.7573 27.64 46.208C25.0373 47.6587 22.0933 48.384 18.808 48.384C16.376 48.384 14.136 47.9147 12.088 46.976C10.0827 46.0373 8.376 44.672 6.968 42.88V60.416H0.824V14.08H6.712V19.456C8.07733 17.5787 9.80533 16.1707 11.896 15.232C13.9867 14.2507 16.2907 13.76 18.808 13.76ZM18.296 43.008C20.472 43.008 22.4133 42.5173 24.12 41.536C25.8693 40.512 27.2347 39.104 28.216 37.312C29.24 35.4773 29.752 33.3867 29.752 31.04C29.752 28.6933 29.24 26.624 28.216 24.832C27.2347 22.9973 25.8693 21.5893 24.12 20.608C22.4133 19.6267 20.472 19.136 18.296 19.136C16.1627 19.136 14.2213 19.648 12.472 20.672C10.7653 21.6533 9.4 23.04 8.376 24.832C7.39467 26.624 6.904 28.6933 6.904 31.04C6.904 33.3867 7.39467 35.4773 8.376 37.312C9.35733 39.104 10.7227 40.512 12.472 41.536C14.2213 42.5173 16.1627 43.008 18.296 43.008ZM54.753 48.384C51.4677 48.384 48.929 47.488 47.137 45.696C45.345 43.8613 44.449 41.3013 44.449 38.016V0.511997H50.593V37.504C50.593 39.3387 51.0197 40.7467 51.873 41.728C52.769 42.7093 54.0917 43.2 55.841 43.2C56.9077 43.2 57.9103 42.9867 58.849 42.56L59.169 47.616C57.761 48.128 56.289 48.384 54.753 48.384ZM96.3865 14.08V48H90.4985V42.624C89.1332 44.5013 87.4052 45.9307 85.3145 46.912C83.2238 47.8933 80.9198 48.384 78.4025 48.384C75.1172 48.384 72.1732 47.6587 69.5705 46.208C66.9678 44.7573 64.9198 42.7307 63.4265 40.128C61.9758 37.4827 61.2505 34.4533 61.2505 31.04C61.2505 27.6267 61.9758 24.6187 63.4265 22.016C64.9198 19.4133 66.9678 17.3867 69.5705 15.936C72.1732 14.4853 75.1172 13.76 78.4025 13.76C80.8345 13.76 83.0745 14.2293 85.1225 15.168C87.1705 16.064 88.8772 17.408 90.2425 19.2V14.08H96.3865ZM78.9145 43.008C81.0478 43.008 82.9892 42.5173 84.7385 41.536C86.4878 40.512 87.8532 39.104 88.8345 37.312C89.8158 35.4773 90.3065 33.3867 90.3065 31.04C90.3065 28.6933 89.8158 26.624 88.8345 24.832C87.8532 22.9973 86.4878 21.5893 84.7385 20.608C82.9892 19.6267 81.0478 19.136 78.9145 19.136C76.7385 19.136 74.7758 19.6267 73.0265 20.608C71.3198 21.5893 69.9545 22.9973 68.9305 24.832C67.9492 26.624 67.4585 28.6933 67.4585 31.04C67.4585 33.3867 67.9492 35.4773 68.9305 37.312C69.9545 39.104 71.3198 40.512 73.0265 41.536C74.7758 42.5173 76.7385 43.008 78.9145 43.008ZM125.868 46.016C124.972 46.784 123.862 47.3813 122.54 47.808C121.217 48.192 119.852 48.384 118.444 48.384C115.03 48.384 112.385 47.4667 110.508 45.632C108.63 43.7973 107.692 41.1733 107.692 37.76V6.656H113.836V14.08H123.564V19.136H113.836V37.504C113.836 39.3387 114.284 40.7467 115.18 41.728C116.118 42.7093 117.441 43.2 119.148 43.2C121.025 43.2 122.625 42.6667 123.948 41.6L125.868 46.016ZM151.118 46.016C150.222 46.784 149.112 47.3813 147.79 47.808C146.467 48.192 145.102 48.384 143.694 48.384C140.28 48.384 137.635 47.4667 135.758 45.632C133.88 43.7973 132.942 41.1733 132.942 37.76V6.656H139.086V14.08H148.814V19.136H139.086V37.504C139.086 39.3387 139.534 40.7467 140.43 41.728C141.368 42.7093 142.691 43.2 144.398 43.2C146.275 43.2 147.875 42.6667 149.198 41.6L151.118 46.016ZM172.683 43.008C176.736 43.008 180 41.6427 182.475 38.912L185.803 42.88C184.309 44.672 182.411 46.0373 180.107 46.976C177.845 47.9147 175.307 48.384 172.491 48.384C168.907 48.384 165.728 47.6587 162.955 46.208C160.181 44.7147 158.027 42.6453 156.491 40C154.997 37.3547 154.251 34.368 154.251 31.04C154.251 27.7547 154.976 24.7893 156.427 22.144C157.92 19.4987 159.947 17.4507 162.507 16C165.109 14.5067 168.032 13.76 171.275 13.76C174.347 13.76 177.141 14.464 179.659 15.872C182.176 17.2373 184.181 19.1787 185.675 21.696C187.168 24.2133 187.936 27.1147 187.979 30.4L161.035 35.648C161.888 37.9947 163.317 39.808 165.323 41.088C167.371 42.368 169.824 43.008 172.683 43.008ZM171.275 18.944C169.141 18.944 167.221 19.4347 165.515 20.416C163.851 21.3973 162.549 22.784 161.611 24.576C160.672 26.3253 160.203 28.3733 160.203 30.72V31.36L181.899 27.264C181.344 24.7893 180.107 22.784 178.187 21.248C176.267 19.712 173.963 18.944 171.275 18.944ZM202.462 19.776C203.529 17.8133 205.107 16.32 207.198 15.296C209.289 14.272 211.827 13.76 214.814 13.76V19.712C214.473 19.6693 214.003 19.648 213.406 19.648C210.078 19.648 207.454 20.6507 205.534 22.656C203.657 24.6187 202.718 27.4347 202.718 31.104V48H196.574V14.08H202.462V19.776ZM254.074 14.08V48H248.186V42.624C246.821 44.5013 245.093 45.9307 243.002 46.912C240.911 47.8933 238.607 48.384 236.09 48.384C232.805 48.384 229.861 47.6587 227.258 46.208C224.655 44.7573 222.607 42.7307 221.114 40.128C219.663 37.4827 218.938 34.4533 218.938 31.04C218.938 27.6267 219.663 24.6187 221.114 22.016C222.607 19.4133 224.655 17.3867 227.258 15.936C229.861 14.4853 232.805 13.76 236.09 13.76C238.522 13.76 240.762 14.2293 242.81 15.168C244.858 16.064 246.565 17.408 247.93 19.2V14.08H254.074ZM236.602 43.008C238.735 43.008 240.677 42.5173 242.426 41.536C244.175 40.512 245.541 39.104 246.522 37.312C247.503 35.4773 247.994 33.3867 247.994 31.04C247.994 28.6933 247.503 26.624 246.522 24.832C245.541 22.9973 244.175 21.5893 242.426 20.608C240.677 19.6267 238.735 19.136 236.602 19.136C234.426 19.136 232.463 19.6267 230.714 20.608C229.007 21.5893 227.642 22.9973 226.618 24.832C225.637 26.624 225.146 28.6933 225.146 31.04C225.146 33.3867 225.637 35.4773 226.618 37.312C227.642 39.104 229.007 40.512 230.714 41.536C232.463 42.5173 234.426 43.008 236.602 43.008ZM267.171 48.384C265.976 48.384 264.952 47.9787 264.099 47.168C263.246 46.3147 262.819 45.248 262.819 43.968C262.819 42.7307 263.246 41.7067 264.099 40.896C264.952 40.0427 265.976 39.616 267.171 39.616C268.366 39.616 269.368 40.0213 270.179 40.832C270.99 41.6427 271.395 42.688 271.395 43.968C271.395 45.248 270.968 46.3147 270.115 47.168C269.304 47.9787 268.323 48.384 267.171 48.384Z" fill="#1D1D1D"/>
</svg>
